<svg width="300" height="400" version="1.1" viewBox="0 0 300 400" xmlns="http://www.w3.org/2000/svg" xmlns:xlink="http://www.w3.org/1999/xlink">
	<defs>
		<pattern id="vagues" width="100" height="12" patternUnits="userSpaceOnUse">
			<path fill-opacity=".05" d="m8.002 0c-2.8695 1.575-5.5708 3.5688-8.002 6v6c13.807-13.807 36.193-13.807 50 0h8.002c-2.8694-1.575-5.5708-3.5688-8.002-6-2.4312-2.4312-5.1325-4.425-8.002-6zm41.998 0c13.807 13.807 36.193 13.807 50 0h-8.002c-10.557 5.7948-23.439 5.7948-33.996 0zm50 6c-2.4312 2.4312-5.1325 4.425-8.002 6h8.002zm-75 1.6445c-5.8618 1e-6 -11.719 1.4581-16.998 4.3555h33.996c-5.2787-2.8974-11.136-4.3555-16.998-4.3555z"/>
		</pattern>
		<clipPath id="cadre">
			<use xlink:href="#bordure"></use>
		</clipPath>
	</defs>
	<g clip-path="url(#cadre)" fill-rule="evenodd">
		<rect x="-52.13" y="-37.09" width="411.03" height="489.22" fill="#ddd"/>
		<rect x="-52.13" y="-37.09" width="411.03" height="489.22" fill="url(#vagues)"/>
		<path fill="#b3b3b3" d="m150 77.266a75 109.37 0 0 0-75 109.37 75 109.37 0 0 0 43.852 99.367h-28.852c-41.421 0-75 48.966-75 109.37v109.37h270v-109.37c0-60.402-33.579-109.37-75-109.37h-28.889a75 109.37 0 0 0 43.889-99.367 75 109.37 0 0 0-75-109.37z"/>
		<rect id="bordure" y="0" width="300" height="400" ry="0" fill="none" stroke="black" stroke-width="0"/>
	</g>
</svg>
